<svg width="24" height="24" viewBox="0 0 24 24" fill="none" xmlns="http://www.w3.org/2000/svg">
<circle cx="12" cy="12" r="12" fill="#F7931A"/>
<path d="M15.5 10.6C15.9 9.8 15.4 8.8 14.5 8.5L14.9 7L13.7 6.7L13.3 8.1C13 8 12.7 7.9 12.4 7.8L12.8 6.4L11.6 6.1L11.2 7.5C11 7.4 10.8 7.4 10.6 7.3L10.6 7.3L9 6.9L8.7 8.2C8.7 8.2 9.5 8.4 9.5 8.4C9.9 8.5 10 8.8 10 9L9.5 10.8C9.6 10.8 9.6 10.8 9.7 10.9L9.5 10.8L8.7 14.2C8.6 14.4 8.4 14.7 8 14.6C8 14.6 7.2 14.4 7.2 14.4L6.6 15.8L8.1 16.2L8.5 16.3L8.1 17.7L9.3 18L9.7 16.6C10 16.7 10.3 16.8 10.6 16.9L10.2 18.3L11.4 18.6L11.8 17.2C13.3 17.5 14.4 17.4 14.8 15.8C15.1 14.6 14.7 13.9 13.8 13.5C14.4 13.3 14.9 12.8 15 11.9L15.5 10.6ZM13.2 15.2C13 16.1 11.3 15.6 10.8 15.4L11.4 13.1C11.9 13.2 13.4 13.8 13.2 15.2ZM13.4 11.8C13.2 12.6 11.8 12.2 11.4 12.1L11.9 10.1C12.3 10.2 13.6 10.6 13.4 11.8Z" fill="white"/>
</svg> 