<svg width="39" height="26" viewBox="0 0 39 26" fill="none" xmlns="http://www.w3.org/2000/svg">
<path d="M14.3518 3.56659H24.844V22.4332H14.3518V3.56659Z" fill="#FF6610"/>
<path d="M15.018 13C15.018 9.16672 16.8166 5.76666 19.5811 3.5666C17.5494 1.96663 14.9847 1 12.1868 1C5.55817 1 0.195557 6.36659 0.195557 13C0.195557 19.6333 5.55817 25 12.1867 25C14.9846 25 17.5493 24.0334 19.5811 22.4332C16.8166 20.2666 15.018 16.8333 15.018 13Z" fill="#FFBB0B"/>
<path d="M39.0001 13C39.0001 19.6333 33.6374 25 27.0089 25C24.211 25 21.6463 24.0334 19.6145 22.4332C22.4124 20.2333 24.1778 16.8333 24.1778 13C24.1778 9.16672 22.379 5.76665 19.6145 3.5666C21.6462 1.96663 24.211 1 27.0089 1C33.6374 1 39.0001 6.39999 39.0001 13Z" fill="#FF0000"/>
</svg>
