<svg width="41" height="14" viewBox="0 0 41 14" fill="none" xmlns="http://www.w3.org/2000/svg">
<path d="M20.0008 0.733582L17.3295 13.308H14.0966L16.772 0.733582H20.0008ZM33.6005 8.85254L35.3009 4.12991L36.2812 8.85254H33.6005ZM37.2054 13.308H40.1956L37.5869 0.733582H34.8275C34.8235 0.733582 34.8181 0.733582 34.8141 0.733582C34.202 0.733582 33.6765 1.1108 33.4551 1.64643L33.4511 1.65582L28.6031 13.308H31.996L32.6709 11.4286H36.8173L37.2054 13.308ZM28.7698 9.20291C28.7832 5.88311 24.21 5.70054 24.242 4.21716C24.2526 3.76611 24.6781 3.28552 25.6117 3.16336C25.785 3.14591 25.9851 3.13517 26.1878 3.13517C27.1361 3.13517 28.035 3.35264 28.8352 3.74195L28.7992 3.72584L29.366 1.05845C28.4684 0.708076 27.4295 0.504027 26.3439 0.5H26.3425C23.147 0.5 20.8997 2.21159 20.8797 4.65882C20.8597 6.4684 22.4842 7.47656 23.7098 8.08065C24.9702 8.69682 25.3929 9.09283 25.3863 9.64188C25.3783 10.4876 24.3833 10.8581 23.4524 10.8729C23.4097 10.8742 23.3577 10.8742 23.3071 10.8742C22.1454 10.8742 21.0518 10.5802 20.0969 10.0607L20.1329 10.0782L19.5474 12.8328C20.5957 13.2557 21.8107 13.5 23.083 13.5C23.103 13.5 23.123 13.5 23.143 13.5H23.1403C26.5359 13.5 28.7565 11.8126 28.7685 9.19888L28.7698 9.20291ZM15.3823 0.733582L10.1462 13.308H6.7293L4.15261 3.27076C4.10327 2.78211 3.80585 2.37402 3.39241 2.16997L3.38441 2.16594C2.46683 1.71221 1.39988 1.34304 0.28358 1.1108L0.195557 1.09603L0.272911 0.732239H5.77304C6.52258 0.732239 7.14541 1.28397 7.26144 2.00485L7.26277 2.01291L8.62447 9.29017L11.988 0.730896L15.3823 0.733582Z" fill="black"/>
</svg>
